# xmcd
#
# Track frame offsets:
#	150
#	14800
#	38975
#	55368
#	71493
#	88045
#	102135
#	115863
#	131888
#	147343
#	171420
#	187393
#
# Disc length: 2792 seconds
#
# Revision: 1
# Processed by: cddbd v1.5.2PL0 Copyright (c) Steve Scherf et al.
# Submitted via: audiograbber 1.83.01
#
DISCID=bb0ae60c
DTITLE=Kris Kristofferson - Spooky Lady's Sideshow
DYEAR=1974
DGENRE=Country
TTITLE0=Same Old Song
TTITLE1=Broken Freedom Song
TTITLE2=Shandy (The Perfect Disguise)
TTITLE3=Star-Spangled Bummer (Whores Die Hard)
TTITLE4=Lights Of Magdala
TTITLE5=I May Smoke Too Much
TTITLE6=One For The Money
TTITLE7=Late Again (Gettin' Over You)
TTITLE8=Stairway To The Bottom
TTITLE9=Rescue Mission
TTITLE10=Smile At Me Again
TTITLE11=Rock And Roll Time
EXTD=
EXTT0=
EXTT1=
EXTT2=
EXTT3=
EXTT4=
EXTT5=
EXTT6=
EXTT7=
EXTT8=
EXTT9=
EXTT10=
EXTT11=
PLAYORDER=
